<mxfile host="app.diagrams.net" modified="2021-02-25T21:40:02.889Z" agent="5.0 (Macintosh; Intel Mac OS X 10_15_7) AppleWebKit/537.36 (KHTML, like Gecko) Chrome/88.0.4324.192 Safari/537.36" etag="vMNgoMOYODUgYAerFy_S" version="14.4.3" type="github">
  <diagram id="C5RBs43oDa-KdzZeNtuy" name="Page-1">
    <mxGraphModel dx="983" dy="508" grid="1" gridSize="10" guides="1" tooltips="1" connect="1" arrows="1" fold="1" page="1" pageScale="1" pageWidth="827" pageHeight="1169" math="0" shadow="0">
      <root>
        <mxCell id="WIyWlLk6GJQsqaUBKTNV-0" />
        <mxCell id="WIyWlLk6GJQsqaUBKTNV-1" parent="WIyWlLk6GJQsqaUBKTNV-0" />
        <mxCell id="p7kULaYef-mVd5IsEo5U-7" style="edgeStyle=orthogonalEdgeStyle;rounded=0;orthogonalLoop=1;jettySize=auto;html=1;exitX=0.5;exitY=1;exitDx=0;exitDy=0;" parent="WIyWlLk6GJQsqaUBKTNV-1" source="WIyWlLk6GJQsqaUBKTNV-3" edge="1">
          <mxGeometry relative="1" as="geometry">
            <mxPoint x="399" y="240" as="targetPoint" />
          </mxGeometry>
        </mxCell>
        <UserObject label="Start" link="/app/packages" id="WIyWlLk6GJQsqaUBKTNV-3">
          <mxCell style="rounded=1;whiteSpace=wrap;html=1;fontSize=12;glass=0;strokeWidth=1;shadow=0;fillColor=#d5e8d4;strokeColor=#82b366;" parent="WIyWlLk6GJQsqaUBKTNV-1" vertex="1">
            <mxGeometry x="324" y="140" width="150" height="40" as="geometry" />
          </mxCell>
        </UserObject>
        <mxCell id="i8LHyfqBCvH4AaGKe-vy-9" value="&lt;font style=&quot;font-size: 24px&quot;&gt;View Jade Package Editor&lt;/font&gt;" style="text;html=1;align=center;verticalAlign=middle;resizable=0;points=[];autosize=1;" parent="WIyWlLk6GJQsqaUBKTNV-1" vertex="1">
          <mxGeometry x="264" y="50" width="300" height="20" as="geometry" />
        </mxCell>
        <mxCell id="bIk_6vCawXg2S4EnOnIb-2" style="edgeStyle=orthogonalEdgeStyle;rounded=0;orthogonalLoop=1;jettySize=auto;html=1;exitX=0.5;exitY=1;exitDx=0;exitDy=0;entryX=0.5;entryY=0;entryDx=0;entryDy=0;" edge="1" parent="WIyWlLk6GJQsqaUBKTNV-1" source="bIk_6vCawXg2S4EnOnIb-0" target="bIk_6vCawXg2S4EnOnIb-1">
          <mxGeometry relative="1" as="geometry" />
        </mxCell>
        <mxCell id="bIk_6vCawXg2S4EnOnIb-0" value="Review claim" style="rounded=1;whiteSpace=wrap;html=1;fillColor=#dae8fc;strokeColor=#6c8ebf;" vertex="1" parent="WIyWlLk6GJQsqaUBKTNV-1">
          <mxGeometry x="339" y="240" width="120" height="60" as="geometry" />
        </mxCell>
        <mxCell id="bIk_6vCawXg2S4EnOnIb-4" style="edgeStyle=orthogonalEdgeStyle;rounded=0;orthogonalLoop=1;jettySize=auto;html=1;exitX=0;exitY=0.5;exitDx=0;exitDy=0;entryX=0.5;entryY=0;entryDx=0;entryDy=0;" edge="1" parent="WIyWlLk6GJQsqaUBKTNV-1" source="bIk_6vCawXg2S4EnOnIb-1" target="bIk_6vCawXg2S4EnOnIb-3">
          <mxGeometry relative="1" as="geometry" />
        </mxCell>
        <mxCell id="bIk_6vCawXg2S4EnOnIb-5" value="Yes" style="edgeLabel;html=1;align=center;verticalAlign=middle;resizable=0;points=[];" vertex="1" connectable="0" parent="bIk_6vCawXg2S4EnOnIb-4">
          <mxGeometry x="-0.5779" y="-3" relative="1" as="geometry">
            <mxPoint as="offset" />
          </mxGeometry>
        </mxCell>
        <mxCell id="bIk_6vCawXg2S4EnOnIb-7" style="edgeStyle=orthogonalEdgeStyle;rounded=0;orthogonalLoop=1;jettySize=auto;html=1;exitX=0.5;exitY=1;exitDx=0;exitDy=0;entryX=0.5;entryY=0;entryDx=0;entryDy=0;" edge="1" parent="WIyWlLk6GJQsqaUBKTNV-1" source="bIk_6vCawXg2S4EnOnIb-1" target="bIk_6vCawXg2S4EnOnIb-6">
          <mxGeometry relative="1" as="geometry" />
        </mxCell>
        <mxCell id="bIk_6vCawXg2S4EnOnIb-8" value="No" style="edgeLabel;html=1;align=center;verticalAlign=middle;resizable=0;points=[];" vertex="1" connectable="0" parent="bIk_6vCawXg2S4EnOnIb-7">
          <mxGeometry x="-0.25" y="-1" relative="1" as="geometry">
            <mxPoint as="offset" />
          </mxGeometry>
        </mxCell>
        <mxCell id="bIk_6vCawXg2S4EnOnIb-1" value="Do you want to make edits?" style="rhombus;whiteSpace=wrap;html=1;fillColor=#fff2cc;strokeColor=#d6b656;" vertex="1" parent="WIyWlLk6GJQsqaUBKTNV-1">
          <mxGeometry x="349" y="350" width="100" height="100" as="geometry" />
        </mxCell>
        <mxCell id="bIk_6vCawXg2S4EnOnIb-9" style="edgeStyle=orthogonalEdgeStyle;rounded=0;orthogonalLoop=1;jettySize=auto;html=1;exitX=1;exitY=0.5;exitDx=0;exitDy=0;entryX=0;entryY=0.5;entryDx=0;entryDy=0;" edge="1" parent="WIyWlLk6GJQsqaUBKTNV-1" source="bIk_6vCawXg2S4EnOnIb-3" target="bIk_6vCawXg2S4EnOnIb-6">
          <mxGeometry relative="1" as="geometry" />
        </mxCell>
        <mxCell id="bIk_6vCawXg2S4EnOnIb-3" value="Make edits using toolbar." style="rounded=1;whiteSpace=wrap;html=1;fillColor=#dae8fc;strokeColor=#6c8ebf;" vertex="1" parent="WIyWlLk6GJQsqaUBKTNV-1">
          <mxGeometry x="200" y="510" width="120" height="60" as="geometry" />
        </mxCell>
        <mxCell id="bIk_6vCawXg2S4EnOnIb-11" style="edgeStyle=orthogonalEdgeStyle;rounded=0;orthogonalLoop=1;jettySize=auto;html=1;exitX=0.5;exitY=1;exitDx=0;exitDy=0;entryX=0.5;entryY=0;entryDx=0;entryDy=0;" edge="1" parent="WIyWlLk6GJQsqaUBKTNV-1" source="bIk_6vCawXg2S4EnOnIb-6" target="bIk_6vCawXg2S4EnOnIb-10">
          <mxGeometry relative="1" as="geometry" />
        </mxCell>
        <mxCell id="bIk_6vCawXg2S4EnOnIb-12" value="Yes" style="edgeLabel;html=1;align=center;verticalAlign=middle;resizable=0;points=[];" vertex="1" connectable="0" parent="bIk_6vCawXg2S4EnOnIb-11">
          <mxGeometry x="-0.1667" y="2" relative="1" as="geometry">
            <mxPoint as="offset" />
          </mxGeometry>
        </mxCell>
        <mxCell id="bIk_6vCawXg2S4EnOnIb-17" style="edgeStyle=orthogonalEdgeStyle;rounded=0;orthogonalLoop=1;jettySize=auto;html=1;exitX=1;exitY=0.5;exitDx=0;exitDy=0;entryX=1;entryY=0.5;entryDx=0;entryDy=0;" edge="1" parent="WIyWlLk6GJQsqaUBKTNV-1" source="bIk_6vCawXg2S4EnOnIb-6" target="bIk_6vCawXg2S4EnOnIb-0">
          <mxGeometry relative="1" as="geometry">
            <mxPoint x="500" y="270" as="targetPoint" />
            <Array as="points">
              <mxPoint x="480" y="540" />
              <mxPoint x="480" y="270" />
            </Array>
          </mxGeometry>
        </mxCell>
        <mxCell id="bIk_6vCawXg2S4EnOnIb-18" value="No" style="edgeLabel;html=1;align=center;verticalAlign=middle;resizable=0;points=[];" vertex="1" connectable="0" parent="bIk_6vCawXg2S4EnOnIb-17">
          <mxGeometry x="0.1801" y="2" relative="1" as="geometry">
            <mxPoint as="offset" />
          </mxGeometry>
        </mxCell>
        <mxCell id="bIk_6vCawXg2S4EnOnIb-6" value="Ready to approve or reject?" style="rhombus;whiteSpace=wrap;html=1;fillColor=#fff2cc;strokeColor=#d6b656;" vertex="1" parent="WIyWlLk6GJQsqaUBKTNV-1">
          <mxGeometry x="359" y="500" width="80" height="80" as="geometry" />
        </mxCell>
        <mxCell id="bIk_6vCawXg2S4EnOnIb-23" style="edgeStyle=orthogonalEdgeStyle;rounded=0;orthogonalLoop=1;jettySize=auto;html=1;exitX=0.5;exitY=1;exitDx=0;exitDy=0;entryX=0.5;entryY=0;entryDx=0;entryDy=0;entryPerimeter=0;" edge="1" parent="WIyWlLk6GJQsqaUBKTNV-1" source="bIk_6vCawXg2S4EnOnIb-10" target="bIk_6vCawXg2S4EnOnIb-22">
          <mxGeometry relative="1" as="geometry" />
        </mxCell>
        <mxCell id="bIk_6vCawXg2S4EnOnIb-10" value="Approve / Reject page" style="rounded=1;whiteSpace=wrap;html=1;fillColor=#dae8fc;strokeColor=#6c8ebf;" vertex="1" parent="WIyWlLk6GJQsqaUBKTNV-1">
          <mxGeometry x="339" y="640" width="120" height="60" as="geometry" />
        </mxCell>
        <mxCell id="bIk_6vCawXg2S4EnOnIb-19" value="" style="strokeWidth=2;html=1;shape=mxgraph.flowchart.annotation_2;align=left;labelPosition=right;pointerEvents=1;direction=west;" vertex="1" parent="WIyWlLk6GJQsqaUBKTNV-1">
          <mxGeometry x="449" y="620" width="50" height="100" as="geometry" />
        </mxCell>
        <mxCell id="bIk_6vCawXg2S4EnOnIb-20" value="Approve will sign box 31 where &lt;br&gt;reject will add rejection signature" style="text;html=1;align=center;verticalAlign=middle;resizable=0;points=[];autosize=1;" vertex="1" parent="WIyWlLk6GJQsqaUBKTNV-1">
          <mxGeometry x="510" y="655" width="190" height="30" as="geometry" />
        </mxCell>
        <mxCell id="bIk_6vCawXg2S4EnOnIb-24" style="edgeStyle=orthogonalEdgeStyle;rounded=0;orthogonalLoop=1;jettySize=auto;html=1;exitX=0;exitY=0.5;exitDx=0;exitDy=0;exitPerimeter=0;entryX=0;entryY=0.5;entryDx=0;entryDy=0;" edge="1" parent="WIyWlLk6GJQsqaUBKTNV-1" source="bIk_6vCawXg2S4EnOnIb-22" target="bIk_6vCawXg2S4EnOnIb-0">
          <mxGeometry relative="1" as="geometry">
            <Array as="points">
              <mxPoint x="160" y="790" />
              <mxPoint x="160" y="270" />
            </Array>
          </mxGeometry>
        </mxCell>
        <mxCell id="bIk_6vCawXg2S4EnOnIb-25" value="Yes" style="edgeLabel;html=1;align=center;verticalAlign=middle;resizable=0;points=[];" vertex="1" connectable="0" parent="bIk_6vCawXg2S4EnOnIb-24">
          <mxGeometry x="-0.8937" y="-1" relative="1" as="geometry">
            <mxPoint as="offset" />
          </mxGeometry>
        </mxCell>
        <mxCell id="bIk_6vCawXg2S4EnOnIb-22" value="More to review?" style="strokeWidth=2;html=1;shape=mxgraph.flowchart.decision;whiteSpace=wrap;fillColor=#fff2cc;strokeColor=#d6b656;" vertex="1" parent="WIyWlLk6GJQsqaUBKTNV-1">
          <mxGeometry x="349" y="740" width="100" height="100" as="geometry" />
        </mxCell>
      </root>
    </mxGraphModel>
  </diagram>
</mxfile>
